<svg width="732" height="209" viewBox="0 0 732 209" fill="none" xmlns="http://www.w3.org/2000/svg">
<path fill-rule="evenodd" clip-rule="evenodd" d="M153.422 59.7656V147.656H146.391V59.7656C146.391 57.8776 146.065 56.2826 145.414 54.9805C144.828 53.6133 144.047 52.5716 143.07 51.8555C142.094 51.1393 140.792 50.5859 139.164 50.1953C137.602 49.7396 136.072 49.4792 134.574 49.4141C133.077 49.2839 131.221 49.2188 129.008 49.2188C126.794 49.2188 124.939 49.2839 123.441 49.4141C121.944 49.4792 120.382 49.7396 118.754 50.1953C117.191 50.5859 115.922 51.1393 114.945 51.8555C113.969 52.5716 113.155 53.6133 112.504 54.9805C111.918 56.2826 111.625 57.8776 111.625 59.7656V147.656H104.594V59.7656C104.594 48.0469 112.732 42.1875 129.008 42.1875C145.284 42.1875 153.422 48.0469 153.422 59.7656ZM167.484 59.7656V147.656H160.453V59.7656C160.453 51.4974 157.523 45.3451 151.664 41.3086C145.87 37.207 138.318 35.1562 129.008 35.1562C119.698 35.1562 112.113 37.207 106.254 41.3086C100.46 45.3451 97.5625 51.4974 97.5625 59.7656V147.656H90.5312V59.7656C90.5312 52.9297 92.2891 47.0703 95.8047 42.1875C99.3203 37.3047 103.91 33.7565 109.574 31.543C115.303 29.2643 121.781 28.125 129.008 28.125C136.234 28.125 142.68 29.2643 148.344 31.543C154.073 33.7565 158.695 37.3047 162.211 42.1875C165.727 47.0703 167.484 52.9297 167.484 59.7656ZM181.547 59.7656V147.656H174.516V59.7656C174.516 53.6458 173.311 48.112 170.902 43.1641C168.559 38.2161 165.303 34.1471 161.137 30.957C156.97 27.7669 152.152 25.3255 146.684 23.6328C141.215 21.9401 135.323 21.0938 129.008 21.0938C122.693 21.0938 116.801 21.9401 111.332 23.6328C105.863 25.3255 101.046 27.7669 96.8789 30.957C92.7122 34.1471 89.4245 38.2161 87.0156 43.1641C84.6719 48.112 83.5 53.6458 83.5 59.7656V147.656H76.4688V59.7656C76.4688 52.6693 77.8359 46.224 80.5703 40.4297C83.3698 34.6354 87.1458 29.8503 91.8984 26.0742C96.651 22.2331 102.217 19.2708 108.598 17.1875C114.978 15.1042 121.781 14.0625 129.008 14.0625C136.234 14.0625 143.038 15.1042 149.418 17.1875C155.798 19.2708 161.365 22.2331 166.117 26.0742C170.87 29.8503 174.613 34.6354 177.348 40.4297C180.147 46.224 181.547 52.6693 181.547 59.7656ZM195.609 147.656H188.578V59.7656C188.578 52.6693 186.983 45.8659 183.793 39.3555C180.668 32.8451 176.436 27.2461 171.098 22.5586C165.759 17.806 159.411 14.0299 152.055 11.2305C144.698 8.43099 137.016 7.03125 129.008 7.03125C118.005 7.03125 108.012 9.11458 99.0273 13.2812C90.1081 17.3828 82.9466 23.5026 77.543 31.6406C72.1393 39.7135 69.4375 49.0885 69.4375 59.7656V147.656H62.4062V59.7656C62.4062 50.7812 64.1641 42.513 67.6797 34.9609C71.1953 27.4089 75.9479 21.0938 81.9375 16.0156C87.9922 10.9375 95.056 6.9987 103.129 4.19922C111.267 1.39974 119.893 0 129.008 0C145.154 0 159.151 4.06901 171 12.207C182.849 4.06901 196.846 0 212.992 0C222.107 0 230.701 1.39974 238.773 4.19922C246.911 6.9987 253.975 10.9375 259.965 16.0156C266.02 21.0938 270.805 27.4089 274.32 34.9609C277.836 42.513 279.594 50.7812 279.594 59.7656V147.656H272.562V59.7656C272.562 49.1536 269.861 39.8112 264.457 31.7383C259.053 23.6003 251.859 17.4479 242.875 13.2812C233.956 9.11458 223.995 7.03125 212.992 7.03125C199.19 7.03125 187.146 10.2865 176.859 16.7969C178.357 18.099 180.017 19.7917 181.84 21.875C190.759 16.6667 201.143 14.0625 212.992 14.0625C220.219 14.0625 227.022 15.1042 233.402 17.1875C239.783 19.2708 245.349 22.2331 250.102 26.0742C254.854 29.8503 258.598 34.6354 261.332 40.4297C264.132 46.224 265.531 52.6693 265.531 59.7656V147.656H258.5V59.7656C258.5 53.6458 257.296 48.112 254.887 43.1641C252.543 38.2161 249.288 34.1471 245.121 30.957C240.954 27.7669 236.137 25.3255 230.668 23.6328C225.199 21.9401 219.307 21.0938 212.992 21.0938C202.641 21.0938 193.689 23.2096 186.137 27.4414C187.309 29.2643 188.48 31.2826 189.652 33.4961C196.033 29.9154 203.812 28.125 212.992 28.125C220.219 28.125 226.664 29.2643 232.328 31.543C238.057 33.7565 242.68 37.3047 246.195 42.1875C249.711 47.0703 251.469 52.9297 251.469 59.7656V147.656H244.438V59.7656C244.438 51.4974 241.508 45.3451 235.648 41.3086C229.854 37.207 222.302 35.1562 212.992 35.1562C204.529 35.1562 197.66 36.7188 192.387 39.8438C193.233 42.3177 193.884 44.6615 194.34 46.875C198.441 43.75 204.659 42.1875 212.992 42.1875C229.268 42.1875 237.406 48.0469 237.406 59.7656V147.656H230.375V59.7656C230.375 57.8776 230.049 56.2826 229.398 54.9805C228.812 53.6133 228.031 52.5716 227.055 51.8555C226.078 51.1393 224.776 50.5859 223.148 50.1953C221.586 49.7396 220.056 49.4792 218.559 49.4141C217.061 49.2839 215.206 49.2188 212.992 49.2188C210.779 49.2188 208.923 49.2839 207.426 49.4141C205.928 49.4792 204.366 49.7396 202.738 50.1953C201.176 50.5859 199.906 51.1393 198.93 51.8555C197.953 52.5716 197.139 53.6133 196.488 54.9805C195.902 56.2826 195.609 57.8776 195.609 59.7656V147.656ZM42.1875 7.03125H49.2188V147.656H42.1875V7.03125ZM28.125 7.03125H35.1562V147.656H28.125V7.03125ZM14.0625 7.03125H21.0938V147.656H14.0625V7.03125ZM0 7.03125H7.03125V147.656H0V7.03125ZM388.262 58.9844C393.405 63.5417 395.977 69.987 395.977 78.3203V147.656H403.008V78.3203C403.008 67.9688 399.753 59.8633 393.242 54.0039C386.797 48.0794 378.333 45.1172 367.852 45.1172C358.346 45.1172 350.436 48.2422 344.121 54.4922C337.806 60.7422 334.648 68.3594 334.648 77.3438C334.648 83.138 335.625 88.2812 337.578 92.7734C339.596 97.2005 342.298 100.716 345.684 103.32C349.069 105.859 352.812 107.78 356.914 109.082C361.081 110.319 365.508 110.938 370.195 110.938C377.487 110.938 384.29 109.277 390.605 105.957V98.9258C384.486 102.572 377.715 104.395 370.293 104.395C367.233 104.395 364.336 104.102 361.602 103.516C358.932 102.93 356.361 101.986 353.887 100.684C351.413 99.3164 349.264 97.6237 347.441 95.6055C345.684 93.5221 344.284 90.9505 343.242 87.8906C342.201 84.7656 341.68 81.25 341.68 77.3438C341.68 70.4427 344.251 64.5182 349.395 59.5703C354.538 54.6224 360.69 52.1484 367.852 52.1484C376.315 52.1484 383.118 54.4271 388.262 58.9844ZM417.07 147.656V78.3203C417.07 68.8802 414.922 60.5469 410.625 53.3203C406.328 46.0938 400.469 40.5924 393.047 36.8164C385.625 32.9753 377.227 31.0547 367.852 31.0547C354.505 31.0547 343.275 35.5794 334.16 44.6289C325.111 53.6133 320.586 64.5182 320.586 77.3438C320.586 84.8958 321.921 91.7318 324.59 97.8516C327.259 103.906 330.872 108.854 335.43 112.695C339.987 116.471 345.163 119.368 350.957 121.387C356.751 123.34 362.871 124.316 369.316 124.316C376.478 124.316 383.574 122.852 390.605 119.922V112.5C383.9 115.951 376.836 117.676 369.414 117.676C363.945 117.676 358.737 116.862 353.789 115.234C348.906 113.542 344.479 111.1 340.508 107.91C336.536 104.72 333.379 100.488 331.035 95.2148C328.757 89.9414 327.617 83.9844 327.617 77.3438C327.617 66.4062 331.458 57.1289 339.141 49.5117C346.823 41.8945 356.393 38.0859 367.852 38.0859C380.221 38.0859 390.345 41.7318 398.223 49.0234C406.1 56.25 410.039 66.0156 410.039 78.3203V147.656H417.07ZM431.133 147.656V78.3203C431.133 66.3411 428.366 55.6641 422.832 46.2891C417.298 36.9141 409.714 29.6875 400.078 24.6094C390.508 19.5312 379.766 16.9922 367.852 16.9922C359.323 16.9922 351.25 18.5872 343.633 21.7773C336.016 24.9674 329.505 29.2643 324.102 34.668C318.698 40.0716 314.401 46.4844 311.211 53.9062C308.086 61.3281 306.523 69.1406 306.523 77.3438C306.523 88.8672 309.355 99.2839 315.02 108.594C320.684 117.904 328.236 125.098 337.676 130.176C347.116 135.254 357.467 137.793 368.73 137.793C375.892 137.793 383.184 136.393 390.605 133.594V126.465C383.509 129.525 376.283 131.055 368.926 131.055C361.699 131.055 354.766 129.85 348.125 127.441C341.549 124.967 335.658 121.517 330.449 117.09C325.306 112.663 321.204 107.031 318.145 100.195C315.085 93.2943 313.555 85.6771 313.555 77.3438C313.555 67.6432 315.898 58.724 320.586 50.5859C325.339 42.4479 331.882 36.0026 340.215 31.25C348.548 26.4323 357.76 24.0234 367.852 24.0234C378.464 24.0234 388.034 26.237 396.562 30.6641C405.091 35.0911 411.797 41.4714 416.68 49.8047C421.628 58.0729 424.102 67.5781 424.102 78.3203V147.656H431.133ZM445.195 147.656V78.3203C445.195 67.1875 443.21 56.901 439.238 47.4609C435.267 38.0208 429.831 30.0781 422.93 23.6328C416.029 17.1224 407.826 12.0443 398.32 8.39844C388.815 4.7526 378.659 2.92969 367.852 2.92969C357.24 2.92969 347.214 4.91536 337.773 8.88672C328.398 12.793 320.391 18.099 313.75 24.8047C307.174 31.4453 301.966 39.3555 298.125 48.5352C294.349 57.6497 292.461 67.2526 292.461 77.3438C292.461 86.1328 293.828 94.4661 296.562 102.344C299.297 110.221 303.073 117.122 307.891 123.047C312.708 128.906 318.275 134.017 324.59 138.379C330.97 142.676 337.871 145.931 345.293 148.145C352.78 150.358 360.462 151.465 368.34 151.465C375.957 151.465 383.379 150.195 390.605 147.656V140.43C383.704 143.359 376.413 144.824 368.73 144.824C361.764 144.824 354.896 143.815 348.125 141.797C341.419 139.779 335.137 136.816 329.277 132.91C323.483 129.004 318.34 124.382 313.848 119.043C309.421 113.639 305.905 107.357 303.301 100.195C300.762 92.9688 299.492 85.3516 299.492 77.3438C299.492 65.1693 302.487 53.9388 308.477 43.6523C314.466 33.3008 322.702 25.0977 333.184 19.043C343.665 12.9883 355.221 9.96094 367.852 9.96094C381.003 9.96094 392.917 12.8255 403.594 18.5547C414.271 24.2188 422.702 32.2917 428.887 42.7734C435.072 53.1901 438.164 65.0391 438.164 78.3203V147.656H445.195ZM446.086 166.465V159.434C450.643 159.434 454.452 158.132 457.512 155.527C460.637 152.923 462.199 149.473 462.199 145.176V7.03125H469.23V145.176C469.23 151.361 466.984 156.471 462.492 160.508C458 164.479 452.531 166.465 446.086 166.465ZM446.086 180.527V173.496C454.549 173.496 461.678 170.762 467.473 165.293C473.332 159.759 476.262 153.053 476.262 145.176V7.03125H483.293V145.176C483.293 154.941 479.68 163.275 472.453 170.176C465.292 177.077 456.503 180.527 446.086 180.527ZM446.086 194.59V187.559C458.456 187.559 468.905 183.424 477.434 175.156C486.027 166.888 490.324 156.895 490.324 145.176V7.03125H497.355V145.176C497.355 154.095 495.077 162.363 490.52 169.98C486.027 177.533 479.842 183.522 471.965 187.949C464.087 192.376 455.461 194.59 446.086 194.59ZM446.086 208.652V201.621C454.094 201.621 461.678 200.124 468.84 197.129C476.066 194.134 482.251 190.13 487.395 185.117C492.603 180.039 496.737 174.017 499.797 167.051C502.857 160.085 504.387 152.793 504.387 145.176V7.03125H511.418V145.176C511.418 153.77 509.693 161.973 506.242 169.785C502.857 177.598 498.234 184.336 492.375 190C486.581 195.729 479.647 200.254 471.574 203.574C463.501 206.96 455.005 208.652 446.086 208.652ZM574.508 7.03125H567.477V147.656H574.508V7.03125ZM560.445 7.03125H553.414V147.656H560.445V7.03125ZM546.383 7.03125H539.352V147.656H546.383V7.03125ZM532.32 7.03125H525.289V147.656H532.32V7.03125ZM638.004 148V69.6797C638.004 64.1458 640.185 59.3932 644.547 55.4219C648.844 51.5156 654.02 49.5625 660.074 49.5625C666.129 49.5625 671.337 51.5156 675.699 55.4219C679.996 59.3932 682.145 64.1458 682.145 69.6797V148H689.176V69.6797C689.176 62.2578 686.344 55.8776 680.68 50.5391C674.951 45.2005 668.082 42.5312 660.074 42.5312C652.066 42.5312 645.23 45.2005 639.566 50.5391C633.837 55.8776 630.973 62.2578 630.973 69.6797V148H638.004ZM623.941 148V69.6797C623.941 60.2396 627.49 52.1667 634.586 45.4609C641.682 38.8203 650.178 35.5 660.074 35.5C670.035 35.5 678.564 38.8203 685.66 45.4609C692.691 52.1667 696.207 60.2396 696.207 69.6797V148H703.238V69.6797C703.238 58.2865 699.007 48.5534 690.543 40.4805C682.079 32.4727 671.923 28.4687 660.074 28.4687C648.225 28.4687 638.069 32.4726 629.605 40.4805C621.142 48.5534 616.91 58.2864 616.91 69.6797V148H623.941ZM609.879 148V69.6797C609.879 61.0208 612.125 52.9805 616.617 45.5586C621.109 38.1367 627.229 32.2448 634.977 27.8828C642.659 23.5859 651.025 21.4375 660.074 21.4375C669.124 21.4375 677.522 23.5859 685.27 27.8828C692.952 32.2448 699.039 38.1367 703.531 45.5586C708.023 52.9805 710.27 61.0208 710.27 69.6797V148H717.301V69.6797C717.301 59.7188 714.729 50.474 709.586 41.9453C704.443 33.4818 697.477 26.776 688.688 21.8281C679.898 16.8802 670.361 14.4062 660.074 14.4062C649.788 14.4062 640.25 16.8802 631.461 21.8281C622.672 26.776 615.706 33.4818 610.562 41.9453C605.419 50.4739 602.848 59.7187 602.848 69.6797V148H609.879ZM595.816 148V69.6797C595.816 58.4818 598.714 48.0976 604.508 38.5273C610.237 28.957 618.049 21.3724 627.945 15.7734C637.776 10.1745 648.486 7.37499 660.074 7.37499C671.663 7.37499 682.405 10.1745 692.301 15.7734C702.132 21.3724 709.944 28.957 715.738 38.5273C721.467 48.0977 724.332 58.4818 724.332 69.6797V148H731.363V69.6797C731.363 60.3047 729.475 51.3203 725.699 42.7266C721.923 34.1979 716.845 26.8411 710.465 20.6562C704.085 14.4714 696.5 9.55599 687.711 5.91015C678.922 2.19921 669.71 0.343745 660.074 0.343744C650.439 0.343743 641.227 2.19921 632.438 5.91015C623.648 9.55598 616.064 14.4713 609.684 20.6562C603.303 26.8411 598.225 34.1979 594.449 42.7266C590.673 51.3203 588.785 60.3047 588.785 69.6797V148H595.816Z" fill="url(#paint0_linear_32_151)"/>
<defs>
<linearGradient id="paint0_linear_32_151" x1="625.114" y1="83.528" x2="435.863" y2="382.713" gradientUnits="userSpaceOnUse">
<stop stop-color="#FC01CB"/>
<stop offset="1" stop-color="#512CA1"/>
</linearGradient>
</defs>
</svg>
