<svg width="732" height="401" viewBox="0 0 732 401" fill="none" xmlns="http://www.w3.org/2000/svg">
<path d="M201.207 84.1329L199.905 84.8785L200.589 86.0719L201.837 85.4941L201.207 84.1329ZM190 64.5694L189.431 63.1817L187.848 63.8308L188.698 65.315L190 64.5694ZM235.665 64.7918H237.165V62.0215L234.845 63.5356L235.665 64.7918ZM235.665 72.3275H234.165V73.8275H235.665V72.3275ZM329.336 72.3275V73.8275H330.836V72.3275H329.336ZM329.336 64.6845L330.146 63.4226L327.836 61.9376V64.6845H329.336ZM361.953 82.6151L361.322 83.9757L362.566 84.5531L363.252 83.365L361.953 82.6151ZM375 60.0159L376.299 60.7658L377.132 59.3234L375.61 58.6457L375 60.0159ZM295.045 2L296.195 1.03671L295.745 0.5H295.045V2ZM267.613 2V0.5H266.836L266.388 1.13506L267.613 2ZM281.831 22.5754L283.17 21.8993L281.968 19.5199L280.558 21.7817L281.831 22.5754ZM311.437 52.0894V53.5894H315.839L312.353 50.9015L311.437 52.0894ZM253.468 52.0894L252.541 50.9098L249.13 53.5894H253.468V52.0894ZM266.107 153.448L265.458 152.096L263.775 152.905L264.927 154.374L266.107 153.448ZM280.66 172L279.48 172.926L280.183 173.822L281.235 173.385L280.66 172ZM320.908 107.069L322.236 107.767L323.391 105.569H320.908V107.069ZM209.236 107.069H207.736V108.569H209.236V107.069ZM209.236 86.1568V84.6568H207.736V86.1568H209.236ZM348.738 86.1568L349.775 85.0729L349.34 84.6568H348.738V86.1568ZM355.262 92.3969L356.704 92.8081L356.952 91.9382L356.299 91.3129L355.262 92.3969ZM202.509 83.3873L191.302 63.8238L188.698 65.315L199.905 84.8785L202.509 83.3873ZM234.845 63.5356C221.68 72.128 208.946 78.8975 200.577 82.7717L201.837 85.4941C210.335 81.56 223.196 74.7206 236.484 66.0479L234.845 63.5356ZM237.165 72.3275V64.7918H234.165V72.3275H237.165ZM329.336 70.8275H235.665V73.8275H329.336V70.8275ZM327.836 64.6845V72.3275H330.836V64.6845H327.836ZM362.584 81.2544C350.577 75.6835 339.718 69.5734 330.146 63.4226L328.525 65.9464C338.203 72.166 349.182 78.3434 361.322 83.9757L362.584 81.2544ZM373.701 59.2659L360.654 81.8651L363.252 83.365L376.299 60.7658L373.701 59.2659ZM293.895 2.96329C323.967 38.8583 359.965 54.9596 374.39 61.386L375.61 58.6457C361.265 52.2546 325.805 36.3798 296.195 1.03671L293.895 2.96329ZM267.613 3.5H295.045V0.5H267.613V3.5ZM190.569 65.9572C207.839 58.8726 224.735 46.8698 238.614 34.7959C252.493 22.7229 263.455 10.4925 268.839 2.86494L266.388 1.13506C261.177 8.51742 250.394 20.5727 236.645 32.5324C222.898 44.4913 206.284 56.2682 189.431 63.1817L190.569 65.9572ZM280.492 23.2515C281.91 26.0608 285.281 30.3616 290.292 35.5059C295.337 40.6851 302.137 46.8128 310.521 53.2773L312.353 50.9015C304.069 44.5144 297.377 38.48 292.441 33.4126C287.471 28.3102 284.372 24.2798 283.17 21.8993L280.492 23.2515ZM254.394 53.269C265.932 44.2064 276.484 33.9852 283.104 23.3691L280.558 21.7817C274.204 31.9715 263.961 41.9403 252.541 50.9098L254.394 53.269ZM311.437 50.5894H253.468V53.5894H311.437V50.5894ZM264.927 154.374L279.48 172.926L281.84 171.074L267.287 152.523L264.927 154.374ZM319.58 106.372C312.445 119.951 296.75 137.061 265.458 152.096L266.757 154.8C298.491 139.552 314.736 122.039 322.236 107.767L319.58 106.372ZM320.908 105.569H209.236V108.569H320.908V105.569ZM210.736 107.069V86.1568H207.736V107.069H210.736ZM209.236 87.6568H326.157V84.6568H209.236V87.6568ZM326.157 87.6568H348.07V84.6568H326.157V87.6568ZM348.738 84.6568H348.07V87.6568H348.738V84.6568ZM356.299 91.3129L349.775 85.0729L347.702 87.2407L354.225 93.4808L356.299 91.3129ZM281.235 173.385C291.206 169.244 306.86 160.28 321.616 146.793C336.374 133.304 350.316 115.215 356.704 92.8081L353.819 91.9856C347.629 113.698 334.083 131.334 319.592 144.579C305.098 157.827 289.74 166.604 280.084 170.615L281.235 173.385Z" fill="#FFCA39"/>
<path d="M356 148.482C440.091 119.925 431.62 46.3478 431.62 2H459.978C453.395 93.0474 485.973 115.221 541 145.123L523.783 168.976C489.349 157.385 459.303 121.829 449.175 102.791C428.413 148.482 389.534 163.041 366.803 172L356 148.482Z" stroke="#FFCA39" stroke-width="3"/>
<defs>
<linearGradient id="paint0_linear_32_95" x1="694.406" y1="259.091" x2="428.151" y2="621.14" gradientUnits="userSpaceOnUse">
<stop stop-color="#FFDC3B"/>
<stop offset="1" stop-color="#FF2825"/>
</linearGradient>
</defs>
</svg>
